Results
version=1
nRows=4
nColumns=143
inDegrees=yes
endheader
time	/jointset/groundthorax/r_z/value	/jointset/groundthorax/r_z/speed	/jointset/sternoclavicular/sternoclavicular_r2/value	/jointset/sternoclavicular/sternoclavicular_r2/speed	/jointset/sternoclavicular/sternoclavicular_r3/value	/jointset/sternoclavicular/sternoclavicular_r3/speed	/jointset/unrotscap/unrotscap_r3/value	/jointset/unrotscap/unrotscap_r3/speed	/jointset/unrotscap/unrotscap_r2/value	/jointset/unrotscap/unrotscap_r2/speed	/jointset/acromioclavicular/acromioclavicular_r2/value	/jointset/acromioclavicular/acromioclavicular_r2/speed	/jointset/acromioclavicular/acromioclavicular_r3/value	/jointset/acromioclavicular/acromioclavicular_r3/speed	/jointset/acromioclavicular/acromioclavicular_r1/value	/jointset/acromioclavicular/acromioclavicular_r1/speed	/jointset/unrothum/unrothum_r1/value	/jointset/unrothum/unrothum_r1/speed	/jointset/unrothum/unrothum_r3/value	/jointset/unrothum/unrothum_r3/speed	/jointset/unrothum/unrothum_r2/value	/jointset/unrothum/unrothum_r2/speed	/jointset/shoulder0/elv_angle/value	/jointset/shoulder0/elv_angle/speed	/jointset/shoulder1/shoulder_elv/value	/jointset/shoulder1/shoulder_elv/speed	/jointset/shoulder1/shoulder1_r2/value	/jointset/shoulder1/shoulder1_r2/speed	/jointset/shoulder2/shoulder_rot/value	/jointset/shoulder2/shoulder_rot/speed	/jointset/elbow/elbow_flexion/value	/jointset/elbow/elbow_flexion/speed	/jointset/radioulnar/pro_sup/value	/jointset/radioulnar/pro_sup/speed	/jointset/radiocarpal/deviation/value	/jointset/radiocarpal/deviation/speed	/jointset/radiocarpal/flexion/value	/jointset/radiocarpal/flexion/speed	/jointset/wrist_hand/wrist_hand_r1/value	/jointset/wrist_hand/wrist_hand_r1/speed	/jointset/wrist_hand/wrist_hand_r3/value	/jointset/wrist_hand/wrist_hand_r3/speed	/forceset/DELT1/activation	/forceset/DELT1/fiber_length	/forceset/DELT2/activation	/forceset/DELT2/fiber_length	/forceset/DELT3/activation	/forceset/DELT3/fiber_length	/forceset/SUPSP/activation	/forceset/SUPSP/fiber_length	/forceset/INFSP/activation	/forceset/INFSP/fiber_length	/forceset/SUBSC/activation	/forceset/SUBSC/fiber_length	/forceset/TMIN/activation	/forceset/TMIN/fiber_length	/forceset/TMAJ/activation	/forceset/TMAJ/fiber_length	/forceset/PECM1/activation	/forceset/PECM1/fiber_length	/forceset/PECM2/activation	/forceset/PECM2/fiber_length	/forceset/PECM3/activation	/forceset/PECM3/fiber_length	/forceset/LAT1/activation	/forceset/LAT1/fiber_length	/forceset/LAT2/activation	/forceset/LAT2/fiber_length	/forceset/LAT3/activation	/forceset/LAT3/fiber_length	/forceset/CORB/activation	/forceset/CORB/fiber_length	/forceset/TRIlong/activation	/forceset/TRIlong/fiber_length	/forceset/TRIlat/activation	/forceset/TRIlat/fiber_length	/forceset/TRImed/activation	/forceset/TRImed/fiber_length	/forceset/ANC/activation	/forceset/ANC/fiber_length	/forceset/SUP/activation	/forceset/SUP/fiber_length	/forceset/BIClong/activation	/forceset/BIClong/fiber_length	/forceset/BICshort/activation	/forceset/BICshort/fiber_length	/forceset/BRA/activation	/forceset/BRA/fiber_length	/forceset/BRD/activation	/forceset/BRD/fiber_length	/forceset/ECRL/activation	/forceset/ECRL/fiber_length	/forceset/ECRB/activation	/forceset/ECRB/fiber_length	/forceset/ECU/activation	/forceset/ECU/fiber_length	/forceset/FCR/activation	/forceset/FCR/fiber_length	/forceset/FCU/activation	/forceset/FCU/fiber_length	/forceset/PL/activation	/forceset/PL/fiber_length	/forceset/PT/activation	/forceset/PT/fiber_length	/forceset/PQ/activation	/forceset/PQ/fiber_length	/forceset/FDSL/activation	/forceset/FDSL/fiber_length	/forceset/FDSR/activation	/forceset/FDSR/fiber_length	/forceset/FDSM/activation	/forceset/FDSM/fiber_length	/forceset/FDSI/activation	/forceset/FDSI/fiber_length	/forceset/FDPL/activation	/forceset/FDPL/fiber_length	/forceset/FDPR/activation	/forceset/FDPR/fiber_length	/forceset/FDPM/activation	/forceset/FDPM/fiber_length	/forceset/FDPI/activation	/forceset/FDPI/fiber_length	/forceset/EDCL/activation	/forceset/EDCL/fiber_length	/forceset/EDCR/activation	/forceset/EDCR/fiber_length	/forceset/EDCM/activation	/forceset/EDCM/fiber_length	/forceset/EDCI/activation	/forceset/EDCI/fiber_length	/forceset/EDM/activation	/forceset/EDM/fiber_length	/forceset/EIP/activation	/forceset/EIP/fiber_length	/forceset/EPL/activation	/forceset/EPL/fiber_length	/forceset/EPB/activation	/forceset/EPB/fiber_length	/forceset/FPL/activation	/forceset/FPL/fiber_length	/forceset/APL/activation	/forceset/APL/fiber_length
      2.78360599	     10.00000028	      0.00000000	     -5.38041390	     -3.19888392	      2.27888939	      1.35489625	     -2.27888939	     -1.35489625	      5.38041390	      3.19888392	     -1.08942437	     -0.64770892	      8.80434453	      5.23455568	      3.95749227	      2.35289675	     -3.95749227	     -2.35289675	     -8.80434453	     -5.23455568	      1.08942437	      0.64770892	    -44.65354522	    -13.68263862	     22.23306545	     13.21849896	     44.65354522	     13.68263862	      6.77075613	    -23.36822309	     15.49103284	     30.66936011	    -31.64244247	    -24.21207135	      0.34648566	      0.83103219	     -0.30210436	      1.46249496	     21.31201666	     37.61263769	     -8.65465232	     41.89739450	      0.00000000	      0.13188317	      0.00000000	      0.12291305	      0.00000000	      0.12635160	      0.00000000	      0.07521791	      0.00000000	      0.08237655	      0.00000000	      0.08687185	      0.00000000	      0.07047753	      0.00000000	      0.13063142	      0.00000000	      0.13743952	      0.00000000	      0.11640678	      0.00000000	      0.09178774	      0.00000000	      0.17322489	      0.00000000	      0.13850453	      0.00000000	      0.20423821	      0.00000000	      0.08123431	      0.00000000	      0.14665766	      0.00000000	      0.07677691	      0.00000000	      0.07175607	      0.00000000	      0.00613022	      0.00000000	      0.03646796	      0.00000000	      0.15871390	      0.00000000	      0.17676254	      0.00000000	      0.09243236	      0.00000000	      0.19903604	      0.00000000	      0.09726637	      0.00000000	      0.06966722	      0.00000000	      0.07517822	      0.00000000	      0.07633870	      0.00000000	      0.05210028	      0.00000000	      0.07910930	      0.00000000	      0.06330707	      0.00000000	      0.03012793	      0.00000000	      0.05718730	      0.00000000	      0.07941592	      0.00000000	      0.08069991	      0.00000000	      0.09339595	      0.00000000	      0.07928538	      0.00000000	      0.08372547	      0.00000000	      0.08080929	      0.00000000	      0.08146124	      0.00000000	      0.08211125	      0.00000000	      0.07239797	      0.00000000	      0.48755646	      0.00000000	      0.07769570	      0.00000000	      0.08077107	      0.00000000	      0.07326440	      0.00000000	      0.06800997	      0.00000000	      0.08157123	      0.00000000	      0.06902509	      0.00000000	      0.08533977
      2.78383694	     10.00000028	      0.00000000	     -5.38115054	     -3.18040232	      2.27920139	      1.34706832	     -2.27920139	     -1.34706832	      5.38115054	      3.18040232	     -1.08957352	     -0.64396678	      8.80554995	      5.20431296	      3.95803410	      2.33930286	     -3.95803410	     -2.33930286	     -8.80554995	     -5.20431296	      1.08957352	      0.64396678	    -44.65670369	    -13.66964036	     22.23610941	     13.14212888	     44.65670369	     13.66964036	      6.76536022	    -23.35985600	     15.49810245	     30.55308679	    -31.64802735	    -24.15287261	      0.34667704	      0.82634271	     -0.30176588	      1.46871599	     21.32067705	     37.38555746	     -8.64495560	     42.07561376	      0.00000000	      0.13188578	      0.00000000	      0.12291305	      0.00000000	      0.12635160	      0.00000000	      0.07521791	      0.00000000	      0.08237655	      0.00000000	      0.08687185	      0.00000000	      0.07047753	      0.00000000	      0.13063142	      0.00000000	      0.13743952	      0.00000000	      0.11640678	      0.00000000	      0.09178774	      0.00000000	      0.17322489	      0.00000000	      0.13850453	      0.00000000	      0.20423821	      0.00000000	      0.08123431	      0.00000000	      0.14665766	      0.00000000	      0.07677979	      0.00000000	      0.07175894	      0.00000000	      0.00613158	      0.00000000	      0.03646796	      0.00000000	      0.15871390	      0.00000000	      0.17676254	      0.00000000	      0.09243236	      0.00000000	      0.19903604	      0.00000000	      0.09726637	      0.00000000	      0.06966722	      0.00000000	      0.07517822	      0.00000000	      0.07633870	      0.00000000	      0.05210028	      0.00000000	      0.07910930	      0.00000000	      0.06330707	      0.00000000	      0.03012842	      0.00000000	      0.05718730	      0.00000000	      0.07941592	      0.00000000	      0.08069991	      0.00000000	      0.09339595	      0.00000000	      0.07928538	      0.00000000	      0.08372547	      0.00000000	      0.08080929	      0.00000000	      0.08146124	      0.00000000	      0.08211125	      0.00000000	      0.07239797	      0.00000000	      0.48755646	      0.00000000	      0.07769570	      0.00000000	      0.08077107	      0.00000000	      0.07326440	      0.00000000	      0.06800997	      0.00000000	      0.08157123	      0.00000000	      0.06902509	      0.00000000	      0.08533977
      2.78422373	     10.00000028	      0.00000000	     -5.38237469	     -3.14946105	      2.27971989	      1.33396305	     -2.27971989	     -1.33396305	      5.38237469	      3.14946105	     -1.08982139	     -0.63770180	      8.80755312	      5.15368161	      3.95893451	      2.31654441	     -3.95893451	     -2.31654441	     -8.80755312	     -5.15368161	      1.08982139	      0.63770180	    -44.66198672	    -13.64785589	     22.24116789	     13.01427268	     44.66198672	     13.64785589	      6.75632819	    -23.34277109	     15.50988211	     30.35697501	    -31.65734989	    -24.04883306	      0.34699512	      0.81837142	     -0.30119580	      1.47905062	     21.33506290	     37.00050362	     -8.62862404	     42.37167897	      0.00000000	      0.13188956	      0.00000000	      0.12291305	      0.00000000	      0.12635160	      0.00000000	      0.07521791	      0.00000000	      0.08237655	      0.00000000	      0.08687185	      0.00000000	      0.07047753	      0.00000000	      0.13063142	      0.00000000	      0.13743952	      0.00000000	      0.11640678	      0.00000000	      0.09178774	      0.00000000	      0.17322489	      0.00000000	      0.13850453	      0.00000000	      0.20423821	      0.00000000	      0.08123431	      0.00000000	      0.14665766	      0.00000000	      0.07678459	      0.00000000	      0.07176372	      0.00000000	      0.00613386	      0.00000000	      0.03646796	      0.00000000	      0.15871390	      0.00000000	      0.17676254	      0.00000000	      0.09243236	      0.00000000	      0.19903604	      0.00000000	      0.09726637	      0.00000000	      0.06966722	      0.00000000	      0.07517822	      0.00000000	      0.07633870	      0.00000000	      0.05210028	      0.00000000	      0.07910930	      0.00000000	      0.06330707	      0.00000000	      0.03012936	      0.00000000	      0.05718730	      0.00000000	      0.07941592	      0.00000000	      0.08069991	      0.00000000	      0.09339595	      0.00000000	      0.07928538	      0.00000000	      0.08372547	      0.00000000	      0.08080929	      0.00000000	      0.08146124	      0.00000000	      0.08211125	      0.00000000	      0.07239797	      0.00000000	      0.48755646	      0.00000000	      0.07769570	      0.00000000	      0.08077107	      0.00000000	      0.07326440	      0.00000000	      0.06800997	      0.00000000	      0.08157123	      0.00000000	      0.06902509	      0.00000000	      0.08533977
      2.78446604	     10.00000028	      0.00000000	     -5.38313551	     -3.13006996	      2.28004213	      1.32574990	     -2.28004213	     -1.32574990	      5.38313551	      3.13006996	     -1.08997544	     -0.63377550	      8.80879809	      5.12195062	      3.95949412	      2.30228155	     -3.95949412	     -2.30228155	     -8.80879809	     -5.12195062	      1.08997544	      0.63377550	    -44.66529216	    -13.63417030	     22.24431175	     12.93414439	     44.66529216	     13.63417030	      6.75067348	    -23.32882839	     15.51722308	     30.23294277	    -31.66316974	    -23.98765752	      0.34719281	      0.81325521	     -0.30083663	      1.48540932	     21.34399898	     36.75410800	     -8.61833455	     42.55384256	      0.00000000	      0.13189325	      0.00000000	      0.12291305	      0.00000000	      0.12635160	      0.00000000	      0.07521791	      0.00000000	      0.08237655	      0.00000000	      0.08687185	      0.00000000	      0.07047753	      0.00000000	      0.13063142	      0.00000000	      0.13743952	      0.00000000	      0.11640678	      0.00000000	      0.09178774	      0.00000000	      0.17322489	      0.00000000	      0.13850453	      0.00000000	      0.20423821	      0.00000000	      0.08123431	      0.00000000	      0.14665766	      0.00000000	      0.07678758	      0.00000000	      0.07176670	      0.00000000	      0.00613527	      0.00000000	      0.03646796	      0.00000000	      0.15871390	      0.00000000	      0.17676254	      0.00000000	      0.09243236	      0.00000000	      0.19903604	      0.00000000	      0.09726637	      0.00000000	      0.06966722	      0.00000000	      0.07517822	      0.00000000	      0.07633870	      0.00000000	      0.05210028	      0.00000000	      0.07910930	      0.00000000	      0.06330707	      0.00000000	      0.03012979	      0.00000000	      0.05718730	      0.00000000	      0.07941592	      0.00000000	      0.08069991	      0.00000000	      0.09339595	      0.00000000	      0.07928538	      0.00000000	      0.08372547	      0.00000000	      0.08080929	      0.00000000	      0.08146124	      0.00000000	      0.08211125	      0.00000000	      0.07239797	      0.00000000	      0.48755646	      0.00000000	      0.07769570	      0.00000000	      0.08077107	      0.00000000	      0.07326440	      0.00000000	      0.06800997	      0.00000000	      0.08157123	      0.00000000	      0.06902509	      0.00000000	      0.08533977
